<svg viewBox="0 0 1470 1300" xmlns="http://www.w3.org/2000/svg">
<defs>
<clipPath id="clipPath3018">
<path d="m230.8919,51.9769-49.7423-49.7387c-2.8623-2.8648-7.5083-2.8648-10.3745,0l-10.3286,10.3295 13.1021,13.1026c3.0459-1.0284 6.5371-.3389 8.9639,2.0884 2.4394,2.4424 3.124,5.9634 2.0698,9.0195l12.628,12.6275c3.0551-1.0528 6.58-.3726 9.0195,2.0713 3.4106,3.4096 3.4106,8.9345 0,12.3453s-8.936,3.4116-12.3486,0c-2.5645-2.5665-3.1988-6.3345-1.8999-9.4942l-11.7769-11.7773-.001,30.9911c.8315.4116 1.6163.961 2.3091,1.6509 3.4096,3.4093 3.4096,8.9331 0,12.3478s-8.938,3.4091-12.3453,0-3.4101-8.9385 0-12.3478c.8428-.8413 1.8179-1.478 2.8584-1.9047v-31.2787c-1.0405-.4254-2.0141-1.0576-2.8584-1.9049-2.583-2.581-3.2051-6.372-1.8804-9.5439l-12.9155-12.918-34.1065,34.1045c-2.8657,2.8671-2.8657,7.5131 0,10.3784l49.7417,49.7388c2.8638,2.8647 7.5083,2.8647 10.376,0l49.5093-49.5083c2.8647-2.8663 2.8647-7.5136 0-10.3789"/>
</clipPath>
</defs>
<g transform="translate(-17.6636,-17.6635)">
<path d="m71.3788,71.3787h1357.2426v1116.0455h-1357.2426z" fill="#345994" stroke="#345994" stroke-linejoin="round" stroke-width="107.4304"/>
</g>
<g transform="translate(-17.6636,-17.6635)">
<path d="m1377.2349,66.2216h53.6666v53.6666h-53.6666z" fill="#b4c8e6" stroke="#b4c8e6" stroke-linejoin="round" stroke-width="28.7646"/>
<path d="m1276.0077,66.2216h53.6666v53.6666h-53.6666z" fill="#b4c8e6" stroke="#b4c8e6" stroke-linejoin="round" stroke-width="28.7646"/>
<path d="m741.3535-642.8843h123.6344a5.0745,5.0745 0 0,1 5.0745,5.0745 5.0745,5.0745 0 0,1 -5.0745,5.0745h-123.6344a5.0745,5.0745 0 0,1 -5.0745-5.0745 5.0745,5.0745 0 0,1 5.0745-5.0745" fill="#698ccd" stroke="#728ec4" stroke-linejoin="round" stroke-width=".9134" transform="matrix(.40582,.40582,-.40582,.40582,819.35438,26.03249)"/>
<path d="m-699.627-808.2452h123.6344a5.0745,5.0745 0 0,1 5.0745,5.0745 5.0745,5.0745 0 0,1 -5.0745,5.0745h-123.6344a5.0745,5.0745 0 0,1 -5.0745-5.0745 5.0745,5.0745 0 0,1 5.0745-5.0745" fill="#698ccd" stroke="#728ec4" stroke-linejoin="round" stroke-width=".9134" transform="matrix(-.40582,.40582,-.40582,-.40582,819.35438,26.03249)"/>
<path d="m-1077.2907-163.0248h111.9011a5.0745,5.0745 0 0,1 5.0745,5.0745 5.0745,5.0745 0 0,1 -5.0745,5.0745h-111.9011a5.0745,5.0745 0 0,1 -5.0745-5.0745 5.0745,5.0745 0 0,1 5.0745-5.0745" fill="#698ccd" stroke="#728ec4" stroke-linejoin="round" stroke-width=".8724" transform="matrix(-.57392,0,0,-.57392,718.52397,26.03249)"/>
</g>
<g fill="#cbd6e8" font-family="Sans" font-size="100" font-weight="bold" letter-spacing="0" transform="translate(-48.2687,-36.3811)" word-spacing="0">
<path d="m160.7285,293.8601c2.3112.293 4.5735.9441 6.7871,1.9531 .5208-.2929 1.0172-.5126 1.4893-.6592s.9358-.2197 1.3916-.2197c1.4974,6e-005 2.7099.5128 3.6377,1.5381s1.3916,2.7426 1.3916,5.1514v3.2226c-5e-005,2.4089-.4639,4.126-1.3916,5.1514s-2.1241,1.5381-3.5889,1.5381c-1.3347,4e-005-2.4659-.4394-3.3935-1.3184s-1.473-2.1647-1.6357-3.8574c-2.3438-1.8554-5.2735-2.7832-8.7891-2.7832-3.6784,5e-005-6.3721.6592-8.081,1.9775s-2.5635,2.7751-2.5635,4.3701c-2e-005,1.237.5208,2.3438 1.5625,3.3203s3.2226,1.8067 6.543,2.4902l6.6406,1.416c5.5989,1.1394 9.6191,2.8483 12.0605,5.1269 3.1901,2.8972 4.7851,6.722 4.7852,11.4746-5e-005,4.1667-1.4568,7.8695-4.3701,11.1084s-7.072,5.3792-12.4756,6.4209v8.4961c-4e-005,2.4089-.4639,4.126-1.3916,5.1514s-2.1403,1.5381-3.6377,1.5381c-1.4649-2e-005-2.6612-.5127-3.5889-1.5381s-1.3916-2.7425-1.3916-5.1514v-8.4961c-2.6042-.5534-5.2084-1.416-7.8125-2.5879-1.3998,1.1719-2.7018,1.7578-3.9063,1.7578-1.5951,1e-005-2.8565-.5046-3.7842-1.5137s-1.3916-2.7181-1.3916-5.1269v-6.2988c-1e-005-2.4088.4639-4.126 1.3916-5.1514s2.1403-1.5381 3.6377-1.5381c1.2044,2e-005 2.2135.3255 3.0273.9766s1.3997,1.652 1.7578,3.0029 .8626,2.3682 1.5137,3.0518c.9766,1.0417 2.4658,1.9125 4.4678,2.6123s4.0608,1.0498 6.1768,1.0498c3.7109,1e-005 6.8034-.9603 9.2774-2.8809 1.6601-1.2695 2.4902-2.9134 2.4902-4.9316-4e-005-1.6601-.5534-3.0273-1.6602-4.1016-1.1068-1.0416-3.4343-1.9205-6.9824-2.6367l-7.5195-1.5137c-5.306-1.0416-9.196-2.9459-11.6699-5.7129s-3.711-6.0872-3.7109-9.9609c-1e-005-3.8411 1.3346-7.2591 4.0039-10.2539s6.2337-4.8828 10.6934-5.6641v-2.7344c-3e-005-2.3762.4638-4.0771 1.3916-5.1025s2.1403-1.538 3.6377-1.5381c1.4648,7e-005 2.6611.5128 3.5889,1.5381s1.3916,2.7263 1.3916,5.1025z" fill="#cbd6e8"/>
</g>
<g fill="#cbd6e8" font-family="Sans" font-size="100" font-weight="bold" letter-spacing="0" transform="translate(-48.3175,-142.0543)" word-spacing="0">
<path d="m174.5957,318.3718c1.4322,4e-005 2.6367.4883 3.6133,1.4649s1.4648,2.1485 1.4649,3.5156c-6e-005,1.3998-.7325,2.9623-2.1973,4.6875-2.2136,2.5716-4.0691,4.3946-5.5664,5.4688-2.2136,1.6276-4.5736,2.4414-7.0801,2.4414-1.8881,2e-005-3.7598-.472-5.6152-1.416s-4.1748-2.7425-6.958-5.3955-4.5655-3.9795-5.3467-3.9795c-.3907,3e-005-.765.1302-1.1231.3906-.7162.4558-1.8799,1.5788-3.4912,3.3691s-2.7425,2.8727-3.3936,3.2471-1.3021.5615-1.9531.5615c-1.3672,2e-005-2.5635-.5045-3.5889-1.5137s-1.5381-2.181-1.5381-3.5156c-1e-005-1.9856 1.6927-4.5735 5.0781-7.7637s6.7057-4.7851 9.9609-4.7851c1.7903,4e-005 3.6295.4639 5.5176,1.3916s4.3782,2.9216 7.4707,5.9814c1.595,1.5951 2.7669,2.6042 3.5156,3.0274 .4883.2604.9277.3907 1.3184.3906 .4557,3e-005 .8626-.1302 1.2207-.3906 .8138-.5534 2.1158-1.888 3.9063-4.0039 1.1393-1.3672 2.0263-2.2379 2.6611-2.6123s1.3427-.5615 2.124-.5615z" fill="#cbd6e8"/>
</g>
<g fill="#cbd6e8" font-family="Sans" font-size="100" font-weight="bold" letter-spacing="0" transform="translate(-.3664,-140.7603)" word-spacing="0">
<path d="m176.3535,291.9558-32.0801,69.1406c-.8138,1.7253-1.5462,2.8483-2.1973,3.3691-.8464.6836-1.8718,1.0254-3.0762,1.0254-1.3672-1e-005-2.5472-.4883-3.54-1.4648s-1.4893-2.0833-1.4893-3.3203c-1e-005-.8789.3906-2.1647 1.1719-3.8574l32.1777-69.0918c.8138-1.7252 1.5299-2.8482 2.1484-3.3691 .8789-.6835 1.9043-1.0253 3.0762-1.0254 1.3671,7e-005 2.539.4802 3.5156,1.4404s1.4648,2.059 1.4648,3.2959c-5e-005,.879-.3907,2.1648-1.1719,3.8574z" fill="#cbd6e8"/>
</g>
<g clip-path="url(#clipPath3018)" transform="matrix(7.10131,0,0,7.10131,-518.04797,234.60069)">
<path d="m230.4355-10.8129-49.7422-49.7388c-2.8622-2.8647-7.5083-2.8647-10.3745,0l-49.5102,49.5088c-2.8657,2.8671-2.8657,7.5131 0,10.3784l49.7417,49.7388c2.8638,2.8647 7.5083,2.8647 10.376,0l49.5093-49.5083c2.8647-2.8662 2.8647-7.5136 0-10.3789" fill="#4467a2"/>
<path d="m293.3929,51.9276-49.7423-49.7388c-2.8622-2.8647-7.5083-2.8647-10.3745,0l-49.5102,49.5088c-2.8657,2.8671-2.8657,7.5131 0,10.3784l49.7417,49.7388c2.8638,2.8648 7.5083,2.8648 10.376,0l49.5093-49.5083c2.8647-2.8662 2.8647-7.5136 0-10.3789" fill="#4467a2"/>
<path d="m167.4356,51.5209-49.7422-49.7388c-2.8623-2.8647-7.5083-2.8647-10.3745,0l-49.5102,49.5088c-2.8657,2.8671-2.8657,7.5131 0,10.3784l49.7417,49.7388c2.8638,2.8647 7.5083,2.8647 10.376,0l49.5092-49.5083c2.8647-2.8662 2.8647-7.5136 0-10.3789" fill="#4467a2"/>
<path d="m230.1294,114.1172-49.7422-49.7388c-2.8622-2.8647-7.5083-2.8647-10.3745,0l-49.5102,49.5088c-2.8657,2.8671-2.8657,7.5131 0,10.3784l49.7417,49.7388c2.8638,2.8647 7.5083,2.8647 10.376,0l49.5093-49.5083c2.8647-2.8663 2.8647-7.5136 0-10.3789" fill="#4467a2"/>
</g>
</svg>
