<svg viewBox="0 0 1060 324" xmlns="http://www.w3.org/2000/svg">
<defs>
<clipPath>
<path d="m230.8919,51.9769-49.7423-49.7387c-2.8623-2.8648-7.5083-2.8648-10.3745,0l-10.3286,10.3295 13.1021,13.1026c3.0459-1.0284 6.5371-.3389 8.9639,2.0884 2.4394,2.4424 3.124,5.9634 2.0698,9.0195l12.628,12.6275c3.0551-1.0528 6.58-.3726 9.0195,2.0713 3.4106,3.4096 3.4106,8.9345 0,12.3453s-8.936,3.4116-12.3486,0c-2.5645-2.5665-3.1988-6.3345-1.8999-9.4942l-11.7769-11.7773-.001,30.9911c.8315.4116 1.6163.961 2.3091,1.6509 3.4096,3.4093 3.4096,8.9331 0,12.3478s-8.938,3.4091-12.3453,0-3.4101-8.9385 0-12.3478c.8428-.8413 1.8179-1.478 2.8584-1.9047v-31.2787c-1.0405-.4254-2.0141-1.0576-2.8584-1.9049-2.583-2.581-3.2051-6.372-1.8804-9.5439l-12.9155-12.918-34.1065,34.1045c-2.8657,2.8671-2.8657,7.5131 0,10.3784l49.7417,49.7388c2.8638,2.8647 7.5083,2.8647 10.376,0l49.5093-49.5083c2.8647-2.8663 2.8647-7.5136 0-10.3789"/>
</clipPath>
<clipPath>
<path d="m0,0h2183.73v912h-2183.73v-912z"/>
</clipPath>
</defs>
<g fill="#324361" font-family="Adelle Basic Rg" font-size="40" font-weight="bold" letter-spacing="0" transform="matrix(6.69247,0,0,6.69247,-1393.0671,-1646.862)" word-spacing="0">
<path d="m209.0508,260.5279 .4297-3.2422h7.0508l.3125,2.0703 .2148.0586c2.0312-1.6797 4.1601-2.5195 6.3867-2.5195 2.3177,2e-005 3.9453.7943 4.8828,2.3828 2.0442-1.5885 4.1927-2.3828 6.4453-2.3828 2.1093,2e-005 3.6165.5371 4.5215,1.6113s1.3574,2.7897 1.3574,5.1465v10.2344c-3e-005,.3385.0325.5534.0977.6445s.2474.1563.5469.1953l1.9922.2344v3.1641h-8.6719v-12.9297c-3e-005-.3646-.01-.6868-.0293-.9668s-.0749-.5827-.166-.9082-.2116-.5957-.3613-.8105-.3679-.3939-.6543-.5371-.6315-.2148-1.0352-.2148c-1.0547,2e-005-2.1354.3646-3.2422,1.0938 .0781.6511.1172,1.3021.1172,1.9531v9.082c-2e-005,.3516.0325.5697.0977.6543s.2474.1465.5469.1855l1.6016.2344v3.1641h-8.2813v-13.125c-2e-005-.4557-.0195-.8398-.0586-1.1524s-.1237-.6478-.2539-1.0058-.3483-.6282-.6543-.8105-.6934-.2734-1.1621-.2734c-.5729,2e-005-1.1621.1237-1.7676.3711s-1.1231.5534-1.5527.918v10.8399c-1e-005,.3385.0293.5404.0879.6055s.2441.1302.5566.1953l1.9727.2734v3.1641h-11.0938v-3.1641l1.7969-.2734c.2865-.0391.4655-.1074.5371-.2051s.1074-.2962.1074-.5957v-11.7578c0-.4557-.1693-.7357-.5078-.8398z" fill="#324361"/>
<path d="m245.2422,277.1685v-5.8008l4.2773.3125 .3906,2.2851c.0391.3386.2018.5404.4883.6055 .8073.2604 1.8359.3906 3.0859.3906 2.2135,0 3.3203-.6901 3.3203-2.0703-2e-005-.7292-.3093-1.2663-.9277-1.6113-.6185-.3451-1.5267-.6217-2.7246-.8301-1.9922-.3646-3.431-.7357-4.3164-1.1133-2.2786-1.0417-3.4245-2.8581-3.4375-5.4492 0-1.1979.2409-2.2559.7227-3.1738s1.1426-1.6471 1.9824-2.1875 1.7773-.9473 2.8125-1.2207 2.1452-.4101 3.3301-.4102c1.4323,2e-005 2.845.1237 4.2383.3711s2.4284.5078 3.1055.7813v5.8008l-4.2773-.2734-.3906-2.0899c-.0391-.3125-.1758-.5013-.4102-.5664-.7031-.2083-1.556-.3125-2.5586-.3125-.9896,1e-005-1.7578.1758-2.3047.5273s-.8203.8529-.8203,1.5039c0,.2865.0749.5469.2246.7813s.332.4264.5469.5762 .5241.293.9277.4297 .7617.2474 1.0742.332 .7357.1856 1.2695.3027c.0911.0261.1595.0423.2051.0488l.1855.0391c.0781.0196.1497.0358.2148.0488 .7682.1693 1.416.3353 1.9434.498s1.1165.4134 1.7676.752 1.1751.7227 1.5723,1.1523 .7357.9994 1.0156,1.709 .4199,1.5137.4199,2.4121c-2e-005,1.1849-.2311,2.2266-.6934,3.125s-1.1068,1.6178-1.9336,2.1582-1.7774.944-2.8516,1.2109-2.2624.4004-3.5645.4004c-1.6537,0-3.2747-.166-4.8633-.498s-2.6042-.6478-3.0469-.9473z" fill="#324361"/>
<path d="m263.8359,260.5279 .6445-3.2422h10.6055v3.2422l-2.5195.3125 4.4336,10.5664h.2734l4.2383-10.5664-2.5977-.3125 .5273-3.2422h8.9258v3.2422l-1.2891.2344c-.5209.0781-.8529.306-.9961.6836l-8.8086,21.5234 4.1601.4297v3.2031h-13.3203v-3.2422l3.125-.3516c.2474-.013.446-.0879.5957-.2246s.2832-.3548.4004-.6543l1.7188-3.8086-7.6367-16.7188c-.0781-.2344-.1725-.3906-.2832-.4688s-.2962-.1497-.5566-.2148z" fill="#324361"/>
<path d="m289.9297,277.1685v-5.8008l4.2773.3125 .3906,2.2851c.039.3386.2018.5404.4883.6055 .8073.2604 1.8359.3906 3.0859.3906 2.2135,0 3.3203-.6901 3.3203-2.0703-2e-005-.7292-.3093-1.2663-.9277-1.6113-.6185-.3451-1.5267-.6217-2.7246-.8301-1.9922-.3646-3.431-.7357-4.3164-1.1133-2.2786-1.0417-3.4245-2.8581-3.4375-5.4492 0-1.1979.2409-2.2559.7227-3.1738s1.1426-1.6471 1.9824-2.1875 1.7773-.9473 2.8125-1.2207 2.1452-.4101 3.3301-.4102c1.4323,2e-005 2.845.1237 4.2383.3711s2.4284.5078 3.1055.7813v5.8008l-4.2773-.2734-.3906-2.0899c-.0391-.3125-.1758-.5013-.4102-.5664-.7031-.2083-1.556-.3125-2.5586-.3125-.9896,1e-005-1.7578.1758-2.3047.5273s-.8203.8529-.8203,1.5039c0,.2865.0749.5469.2246.7813s.332.4264.5469.5762 .5241.293.9277.4297 .7617.2474 1.0742.332 .7357.1856 1.2695.3027c.0911.0261.1595.0423.2051.0488l.1855.0391c.0781.0196.1497.0358.2148.0488 .7682.1693 1.416.3353 1.9434.498s1.1165.4134 1.7676.752 1.1751.7227 1.5723,1.1523 .7357.9994 1.0156,1.709 .4199,1.5137.4199,2.4121c-2e-005,1.1849-.2311,2.2266-.6934,3.125s-1.1068,1.6178-1.9336,2.1582-1.7774.944-2.8516,1.2109-2.2624.4004-3.5645.4004c-1.6537,0-3.2747-.166-4.8633-.498s-2.6042-.6478-3.0469-.9473z" fill="#324361"/>
<path d="m309.5977,263.5748c0-2.1614.3125-4.1439.9375-5.9473s1.5462-3.3756 2.7637-4.7168 2.7897-2.386 4.7168-3.1348 4.1211-1.123 6.582-1.1231c1.5625,3e-005 3.1738.1953 4.834.5859s3.0631.9636 4.209,1.7188v7.5586l-4.4336-.3125-.6055-3.5938c-.0521-.2734-.127-.4655-.2246-.5762s-.2377-.1855-.4199-.2246c-1.2761-.3515-2.5-.5273-3.6719-.5273-2.5651,2e-005-4.5801.9115-6.0449,2.7344s-2.1973,4.3099-2.1973,7.4609c-1e-005,3.3594.7161,5.9538 2.1484,7.7832s3.5547,2.7441 6.3672,2.7441c1.1458,1e-005 2.2526-.0911 3.3203-.2734 .2344-.0391.4004-.1074.498-.2051s.1465-.2702.1465-.5176v-5.2344h-4.4336l.5469-3.6133h12.2852v3.2031l-1.6406.1563c-.2474.026-.4167.0781-.5078.1563s-.1368.2149-.1367.4102v8.5938c-2.7214,1.2891-6.1719,1.9336-10.3516,1.9336-2.1354,0-4.0397-.2474-5.7129-.7422s-3.0664-1.1816-4.1797-2.0605-2.0345-1.9564-2.7637-3.2324-1.25-2.653-1.5625-4.1309-.4688-3.1022-.4688-4.873z" fill="#324361"/>
<path d="m338.0352,278.1255v-3.1641l2.0313-.2734c.2864-.0391.4655-.1074.5371-.2051s.1074-.2962.1074-.5957v-11.7578c-1e-005-.4557-.1693-.7357-.5078-.8398l-2.168-.7617 .4297-3.2422h8.2813v16.6016c-1e-005,.3255.0326.5306.0977.6152s.2474.1465.5469.1855l2.0508.2734v3.1641zm1.5625-27.6367c-1e-005-1.1328.3125-2.0019.9375-2.6074s1.5104-.9082 2.6563-.9082c1.1719,4e-005 2.0736.3028 2.7051.9082s.9473,1.4746.9473,2.6074c-1e-005,1.1459-.319,2.0313-.957,2.6563s-1.5365.9375-2.6953.9375c-1.1458,2e-005-2.0313-.3125-2.6563-.9375s-.9375-1.5104-.9375-2.6563z" fill="#324361"/>
<path d="m350.2031,261.2896v-3.5547c1.7448-.1953 3.0208-.7845 3.8281-1.7676s1.3216-2.5683 1.543-4.7559h3.7891v5.6836c-1e-005,.1563.0195.2604.0586.3125s.1302.0781.2734.0781h5.6445v4.0039h-5.9766v9.5508c-1e-005,1.211.1921,2.0606.5762,2.5488s1.1035.7324 2.1582.7324c.9896,1e-005 2.0703-.2148 3.2422-.6445l1.0742,3.5352c-2.1875,1.0677-4.362,1.6016-6.5234,1.6016-2.3568,0-4.0397-.5046-5.0488-1.5137s-1.5137-2.653-1.5137-4.9316v-10.4883c0-.1042-.003-.1758-.01-.2149s-.0326-.0781-.0781-.1172-.1204-.0586-.2246-.0586z" fill="#324361"/>
</g>
<g fill="#bacbdd" font-family="Adelle Basic Rg" font-size="40" font-weight="bold" letter-spacing="0" transform="matrix(6.69247,0,0,6.69247,-1399.0671,-1652.862)" word-spacing="0">
<path d="m209.0508,260.5279 .4297-3.2422h7.0508l.3125,2.0703 .2148.0586c2.0312-1.6797 4.1601-2.5195 6.3867-2.5195 2.3177,2e-005 3.9453.7943 4.8828,2.3828 2.0442-1.5885 4.1927-2.3828 6.4453-2.3828 2.1093,2e-005 3.6165.5371 4.5215,1.6113s1.3574,2.7897 1.3574,5.1465v10.2344c-3e-005,.3385.0325.5534.0977.6445s.2474.1563.5469.1953l1.9922.2344v3.1641h-8.6719v-12.9297c-3e-005-.3646-.01-.6868-.0293-.9668s-.0749-.5827-.166-.9082-.2116-.5957-.3613-.8105-.3679-.3939-.6543-.5371-.6315-.2148-1.0352-.2148c-1.0547,2e-005-2.1354.3646-3.2422,1.0938 .0781.6511.1172,1.3021.1172,1.9531v9.082c-2e-005,.3516.0325.5697.0977.6543s.2474.1465.5469.1855l1.6016.2344v3.1641h-8.2813v-13.125c-2e-005-.4557-.0195-.8398-.0586-1.1524s-.1237-.6478-.2539-1.0058-.3483-.6282-.6543-.8105-.6934-.2734-1.1621-.2734c-.5729,2e-005-1.1621.1237-1.7676.3711s-1.1231.5534-1.5527.918v10.8399c-1e-005,.3385.0293.5404.0879.6055s.2441.1302.5566.1953l1.9727.2734v3.1641h-11.0938v-3.1641l1.7969-.2734c.2865-.0391.4655-.1074.5371-.2051s.1074-.2962.1074-.5957v-11.7578c0-.4557-.1693-.7357-.5078-.8398z" fill="#bacbdd"/>
<path d="m245.2422,277.1685v-5.8008l4.2773.3125 .3906,2.2851c.0391.3386.2018.5404.4883.6055 .8073.2604 1.8359.3906 3.0859.3906 2.2135,0 3.3203-.6901 3.3203-2.0703-2e-005-.7292-.3093-1.2663-.9277-1.6113-.6185-.3451-1.5267-.6217-2.7246-.8301-1.9922-.3646-3.431-.7357-4.3164-1.1133-2.2786-1.0417-3.4245-2.8581-3.4375-5.4492 0-1.1979.2409-2.2559.7227-3.1738s1.1426-1.6471 1.9824-2.1875 1.7773-.9473 2.8125-1.2207 2.1452-.4101 3.3301-.4102c1.4323,2e-005 2.845.1237 4.2383.3711s2.4284.5078 3.1055.7813v5.8008l-4.2773-.2734-.3906-2.0899c-.0391-.3125-.1758-.5013-.4102-.5664-.7031-.2083-1.556-.3125-2.5586-.3125-.9896,1e-005-1.7578.1758-2.3047.5273s-.8203.8529-.8203,1.5039c0,.2865.0749.5469.2246.7813s.332.4264.5469.5762 .5241.293.9277.4297 .7617.2474 1.0742.332 .7357.1856 1.2695.3027c.0911.0261.1595.0423.2051.0488l.1855.0391c.0781.0196.1497.0358.2148.0488 .7682.1693 1.416.3353 1.9434.498s1.1165.4134 1.7676.752 1.1751.7227 1.5723,1.1523 .7357.9994 1.0156,1.709 .4199,1.5137.4199,2.4121c-2e-005,1.1849-.2311,2.2266-.6934,3.125s-1.1068,1.6178-1.9336,2.1582-1.7774.944-2.8516,1.2109-2.2624.4004-3.5645.4004c-1.6537,0-3.2747-.166-4.8633-.498s-2.6042-.6478-3.0469-.9473z" fill="#bacbdd"/>
<path d="m263.8359,260.5279 .6445-3.2422h10.6055v3.2422l-2.5195.3125 4.4336,10.5664h.2734l4.2383-10.5664-2.5977-.3125 .5273-3.2422h8.9258v3.2422l-1.2891.2344c-.5209.0781-.8529.306-.9961.6836l-8.8086,21.5234 4.1601.4297v3.2031h-13.3203v-3.2422l3.125-.3516c.2474-.013.446-.0879.5957-.2246s.2832-.3548.4004-.6543l1.7188-3.8086-7.6367-16.7188c-.0781-.2344-.1725-.3906-.2832-.4688s-.2962-.1497-.5566-.2148z" fill="#bacbdd"/>
<path d="m289.9297,277.1685v-5.8008l4.2773.3125 .3906,2.2851c.039.3386.2018.5404.4883.6055 .8073.2604 1.8359.3906 3.0859.3906 2.2135,0 3.3203-.6901 3.3203-2.0703-2e-005-.7292-.3093-1.2663-.9277-1.6113-.6185-.3451-1.5267-.6217-2.7246-.8301-1.9922-.3646-3.431-.7357-4.3164-1.1133-2.2786-1.0417-3.4245-2.8581-3.4375-5.4492 0-1.1979.2409-2.2559.7227-3.1738s1.1426-1.6471 1.9824-2.1875 1.7773-.9473 2.8125-1.2207 2.1452-.4101 3.3301-.4102c1.4323,2e-005 2.845.1237 4.2383.3711s2.4284.5078 3.1055.7813v5.8008l-4.2773-.2734-.3906-2.0899c-.0391-.3125-.1758-.5013-.4102-.5664-.7031-.2083-1.556-.3125-2.5586-.3125-.9896,1e-005-1.7578.1758-2.3047.5273s-.8203.8529-.8203,1.5039c0,.2865.0749.5469.2246.7813s.332.4264.5469.5762 .5241.293.9277.4297 .7617.2474 1.0742.332 .7357.1856 1.2695.3027c.0911.0261.1595.0423.2051.0488l.1855.0391c.0781.0196.1497.0358.2148.0488 .7682.1693 1.416.3353 1.9434.498s1.1165.4134 1.7676.752 1.1751.7227 1.5723,1.1523 .7357.9994 1.0156,1.709 .4199,1.5137.4199,2.4121c-2e-005,1.1849-.2311,2.2266-.6934,3.125s-1.1068,1.6178-1.9336,2.1582-1.7774.944-2.8516,1.2109-2.2624.4004-3.5645.4004c-1.6537,0-3.2747-.166-4.8633-.498s-2.6042-.6478-3.0469-.9473z" fill="#bacbdd"/>
<path d="m309.5977,263.5748c0-2.1614.3125-4.1439.9375-5.9473s1.5462-3.3756 2.7637-4.7168 2.7897-2.386 4.7168-3.1348 4.1211-1.123 6.582-1.1231c1.5625,3e-005 3.1738.1953 4.834.5859s3.0631.9636 4.209,1.7188v7.5586l-4.4336-.3125-.6055-3.5938c-.0521-.2734-.127-.4655-.2246-.5762s-.2377-.1855-.4199-.2246c-1.2761-.3515-2.5-.5273-3.6719-.5273-2.5651,2e-005-4.5801.9115-6.0449,2.7344s-2.1973,4.3099-2.1973,7.4609c-1e-005,3.3594.7161,5.9538 2.1484,7.7832s3.5547,2.7441 6.3672,2.7441c1.1458,1e-005 2.2526-.0911 3.3203-.2734 .2344-.0391.4004-.1074.498-.2051s.1465-.2702.1465-.5176v-5.2344h-4.4336l.5469-3.6133h12.2852v3.2031l-1.6406.1563c-.2474.026-.4167.0781-.5078.1563s-.1368.2149-.1367.4102v8.5938c-2.7214,1.2891-6.1719,1.9336-10.3516,1.9336-2.1354,0-4.0397-.2474-5.7129-.7422s-3.0664-1.1816-4.1797-2.0605-2.0345-1.9564-2.7637-3.2324-1.25-2.653-1.5625-4.1309-.4688-3.1022-.4688-4.873z" fill="#bacbdd"/>
<path d="m338.0352,278.1255v-3.1641l2.0313-.2734c.2864-.0391.4655-.1074.5371-.2051s.1074-.2962.1074-.5957v-11.7578c-1e-005-.4557-.1693-.7357-.5078-.8398l-2.168-.7617 .4297-3.2422h8.2813v16.6016c-1e-005,.3255.0326.5306.0977.6152s.2474.1465.5469.1855l2.0508.2734v3.1641zm1.5625-27.6367c-1e-005-1.1328.3125-2.0019.9375-2.6074s1.5104-.9082 2.6563-.9082c1.1719,4e-005 2.0736.3028 2.7051.9082s.9473,1.4746.9473,2.6074c-1e-005,1.1459-.319,2.0313-.957,2.6563s-1.5365.9375-2.6953.9375c-1.1458,2e-005-2.0313-.3125-2.6563-.9375s-.9375-1.5104-.9375-2.6563z" fill="#bacbdd"/>
<path d="m350.2031,261.2896v-3.5547c1.7448-.1953 3.0208-.7845 3.8281-1.7676s1.3216-2.5683 1.543-4.7559h3.7891v5.6836c-1e-005,.1563.0195.2604.0586.3125s.1302.0781.2734.0781h5.6445v4.0039h-5.9766v9.5508c-1e-005,1.211.1921,2.0606.5762,2.5488s1.1035.7324 2.1582.7324c.9896,1e-005 2.0703-.2148 3.2422-.6445l1.0742,3.5352c-2.1875,1.0677-4.362,1.6016-6.5234,1.6016-2.3568,0-4.0397-.5046-5.0488-1.5137s-1.5137-2.653-1.5137-4.9316v-10.4883c0-.1042-.003-.1758-.01-.2149s-.0326-.0781-.0781-.1172-.1204-.0586-.2246-.0586z" fill="#bacbdd"/>
</g>
</svg>
